<svg width="200" height="200" viewBox="0 0 200 200" fill="none" xmlns="http://www.w3.org/2000/svg">
<path d="M110.468 152.085C143.323 146.292 165.26 114.961 159.467 82.1066C153.674 49.2518 122.344 27.314 89.4889 33.1072C56.6341 38.9004 34.6963 70.2307 40.4895 103.086C46.2827 135.94 77.613 157.878 110.468 152.085Z" fill="#FFD6A5"/>
<path d="M156.115 141.614C156.008 141.007 155.879 140.395 155.751 139.783C155.439 138.311 155.091 136.822 154.708 135.316C154.645 135.076 154.586 134.839 154.523 134.599C154.359 133.973 154.196 133.347 154.023 132.718C153.904 132.278 153.781 131.838 153.658 131.394C153.068 129.29 152.432 127.153 151.775 124.995C151.623 124.503 151.473 124.006 151.32 123.51C149.553 117.762 142.427 91.7642 139.614 81.4178C136.821 52.0072 134.262 29.3649 133.372 24.3149C131.295 12.537 122.246 5.44063 112.913 7.08626C103.58 8.73189 97.898 16.1066 99.5803 30.2733C101.226 44.1128 104.546 61.3809 108.677 78.9883C107.595 79.0678 106.203 79.1856 105.059 79.2637C102.483 79.4419 99.6472 79.6906 97.8853 80.0013L97.0583 80.1471C95.2964 80.4578 92.5427 81.1946 90.065 81.9075C88.9634 82.2253 87.6109 82.5915 86.5712 82.8861C84.4264 64.9286 81.645 47.5654 78.4536 33.9985C75.1892 20.1107 67.3274 15.1242 57.9946 16.7698C48.6618 18.4155 42.5852 28.1789 44.662 39.9569C45.5524 45.0068 50.892 67.1589 58.3262 95.7469C59.2143 106.437 61.4179 133.302 61.7231 139.308C61.7526 139.826 61.7782 140.345 61.807 140.859C61.9242 143.112 62.0585 145.346 62.223 147.517C62.2586 147.976 62.2976 148.43 62.3325 148.886C62.3893 149.535 62.4454 150.18 62.5095 150.824C62.5325 151.071 62.5547 151.314 62.5817 151.561C62.7336 153.107 62.9162 154.625 63.1294 156.115C63.2379 156.73 63.3104 157.352 63.4095 157.96C63.4842 158.384 63.5595 158.811 63.6335 159.231C63.785 160.09 63.9576 160.929 64.1415 161.761C64.3106 162.533 64.4927 163.294 64.6878 164.042C64.7942 164.435 64.9041 164.848 65.0192 165.244L65.2067 165.886C65.3753 166.446 65.5545 166.995 65.7411 167.539C65.7455 167.575 65.7518 167.611 65.7601 167.647C66.2559 169.089 66.8402 170.499 67.5098 171.87C67.6459 172.15 67.7852 172.427 67.9325 172.701C70.5024 177.768 74.6494 181.863 79.7487 184.369C80.0784 184.533 80.4153 184.692 80.7603 184.849C82.4778 185.657 84.3134 186.184 86.1975 186.412C86.2123 186.496 86.2466 186.457 86.2983 186.423L86.3998 186.438L86.5083 186.633C88.4713 190.756 91.9129 192.473 97.0708 191.563C102.309 190.64 106.203 187.893 105.583 184.378C105.575 184.33 105.566 184.278 105.556 184.226C105.553 184.195 105.548 184.164 105.54 184.134C105.436 183.543 105.218 182.304 105.218 182.304L105.901 182.043L106.357 181.872L107.559 181.426C109.963 180.509 112.443 179.807 114.971 179.328C117.513 178.908 120.087 178.715 122.663 178.75V178.75L123.942 178.759L124.429 178.764L125.138 178.771C125.138 178.771 125.357 180.009 125.461 180.601C125.467 180.633 125.472 180.661 125.477 180.693C125.483 180.725 125.495 180.796 125.504 180.844C126.122 184.348 130.723 185.609 135.961 184.685C141.119 183.776 143.77 180.985 144.2 176.44C144.211 176.364 144.228 176.295 144.235 176.219L144.329 176.17C144.386 176.184 144.439 176.208 144.416 176.125C146.11 175.266 147.655 174.143 148.995 172.797C149.261 172.532 149.524 172.267 149.777 172C153.713 167.902 156.211 162.635 156.895 156.994C156.935 156.687 156.972 156.379 157.007 156.068C157.166 154.551 157.233 153.026 157.207 151.502C157.199 151.466 157.193 151.43 157.188 151.394C157.177 150.819 157.154 150.242 157.121 149.659C157.111 149.438 157.096 149.214 157.078 148.991C157.051 148.584 157.021 148.177 156.978 147.748C156.903 146.979 156.814 146.202 156.711 145.418C156.599 144.573 156.471 143.726 156.323 142.867C156.272 142.46 156.197 142.036 156.115 141.614Z" fill="white"/>
<path d="M112.913 7.08626C122.246 5.44062 131.299 12.557 133.375 24.3349C134.266 29.3848 136.825 52.0312 139.616 81.4338C142.438 91.7828 149.556 117.782 151.323 123.53C151.477 124.026 151.626 124.523 151.779 125.015C152.435 127.173 153.073 129.318 153.661 131.414C153.785 131.858 153.907 132.298 154.026 132.738C154.199 133.367 154.363 133.993 154.527 134.619C154.59 134.859 154.648 135.096 154.711 135.336C155.092 136.843 155.44 138.332 155.754 139.803C155.883 140.415 156.003 141.028 156.118 141.634C156.193 142.057 156.267 142.481 156.342 142.904C156.494 143.763 156.618 144.611 156.73 145.456C156.835 146.239 156.924 147.016 156.997 147.786C157.035 148.191 157.069 148.618 157.097 149.029C157.115 149.252 157.13 149.476 157.14 149.697C157.173 150.28 157.196 150.857 157.206 151.428C157.213 151.468 157.22 151.503 157.226 151.539C157.252 153.064 157.185 154.589 157.026 156.106C156.99 156.417 156.954 156.724 156.914 157.032C156.23 162.673 153.732 167.939 149.796 172.038C149.543 172.305 149.28 172.57 149.014 172.835C147.674 174.181 146.129 175.304 144.435 176.163C144.442 176.203 144.445 176.219 144.421 176.224C144.396 176.222 144.372 176.217 144.348 176.208L144.254 176.257L144.219 176.478C143.785 181.028 141.138 183.814 135.98 184.723C130.742 185.647 126.143 184.398 125.523 180.882C125.514 180.834 125.505 180.782 125.496 180.73C125.487 180.679 125.486 180.671 125.48 180.639C125.376 180.047 125.157 178.809 125.157 178.809L124.426 178.798L123.939 178.793L122.661 178.783C120.086 178.736 117.513 178.918 114.971 179.328C112.446 179.808 109.968 180.512 107.568 181.432V181.432L106.366 181.879L105.91 182.05L105.227 182.311C105.227 182.311 105.445 183.549 105.55 184.14C105.557 184.171 105.562 184.201 105.566 184.232C105.575 184.284 105.584 184.336 105.593 184.384C106.21 187.888 102.318 190.646 97.0801 191.57C91.9223 192.479 88.4773 190.768 86.5177 186.639L86.4091 186.444L86.3076 186.429C86.2872 186.446 86.2647 186.46 86.2406 186.47C86.2206 186.473 86.2127 186.475 86.2068 186.418C84.3227 186.191 82.4871 185.663 80.7696 184.856C80.4247 184.698 80.0877 184.539 79.758 184.375C74.6587 181.87 70.5117 177.775 67.9418 172.708C67.7945 172.433 67.6552 172.157 67.5191 171.876C66.8496 170.506 66.2652 169.096 65.7694 167.653C65.7606 167.617 65.754 167.579 65.7497 167.542C65.5639 167.002 65.3846 166.452 65.216 165.893L65.0285 165.251C64.9141 164.859 64.8077 164.466 64.6971 164.048C64.502 163.3 64.3199 162.54 64.1508 161.768C63.9669 160.935 63.7983 160.096 63.6428 159.237C63.5689 158.818 63.4935 158.39 63.4188 157.967C63.3117 157.36 63.2272 156.74 63.1387 156.121C62.9255 154.632 62.743 153.114 62.5911 151.567C62.5481 151.323 62.5418 151.077 62.5188 150.83C62.4547 150.186 62.3986 149.541 62.3418 148.892C62.3069 148.437 62.2679 147.983 62.2323 147.523C62.0664 145.345 61.9335 143.119 61.8163 140.866C61.7875 140.352 61.7619 139.833 61.7324 139.315C61.4273 133.309 59.2316 106.442 58.3356 95.7535C50.902 67.1695 45.5618 45.0134 44.6713 39.9634C42.5851 28.1789 48.6657 18.4148 57.9945 16.7698C67.3234 15.1249 75.1926 20.1307 78.457 34.0185C81.6484 47.5854 84.4299 64.9486 86.5754 82.91C87.6144 82.6115 88.9629 82.246 90.0684 81.9275C92.5462 81.2146 95.2999 80.4778 97.0618 80.1671L97.8888 80.0213C99.6507 79.7106 102.486 79.4619 105.062 79.2836C106.206 79.2055 107.598 79.0878 108.681 79.0122C104.55 61.4009 101.229 44.1328 99.5838 30.2933C97.8979 16.1066 103.584 8.73118 112.913 7.08626ZM112.356 3.92604C100.446 6.02605 94.6307 15.7764 96.4005 30.6733C97.873 43.0892 100.74 58.7441 104.71 76.0955C101.393 76.322 98.9097 76.5828 97.3315 76.861L96.5045 77.0069C94.9064 77.2887 92.4997 77.8902 89.3048 78.8119C87.102 61.1325 84.4404 45.4536 81.5822 33.2861C78.1428 18.663 69.3407 11.4736 57.4309 13.5737C46.0006 15.5891 39.1521 27.1653 41.5029 40.4974C42.375 45.4435 47.4503 66.6576 55.1483 96.2743C55.7069 102.993 58.1945 133.105 58.5196 139.457L58.6002 141.012C58.7223 143.294 58.8548 145.54 59.0209 147.744L59.134 149.132C59.1903 149.802 59.2485 150.459 59.3106 151.116L59.3815 151.845C59.5512 153.508 59.7413 155.077 59.9472 156.548C60.0407 157.195 60.136 157.829 60.2393 158.462C60.3175 158.905 60.395 159.345 60.4725 159.784C60.631 160.683 60.8107 161.562 61.0016 162.434C61.1925 163.307 61.3729 164.05 61.5784 164.841C61.6912 165.271 61.8072 165.695 61.9305 166.114L62.1304 166.804C62.3094 167.398 62.4976 167.975 62.7006 168.565C63.2465 170.167 63.8927 171.733 64.6354 173.254C64.7851 173.565 64.9413 173.867 65.0975 174.169C67.9741 179.837 72.6174 184.415 78.3259 187.211C78.6838 187.395 79.0563 187.568 79.4367 187.74C81.0046 188.469 82.6541 189.008 84.3501 189.345C86.4299 192.776 90.3404 195.984 97.6517 194.695C104.963 193.406 109.354 189.29 108.845 184.35C111.018 183.524 113.259 182.89 115.542 182.453C117.837 182.082 120.16 181.912 122.485 181.945C123.697 186.761 129.254 189.122 136.541 187.837C143.828 186.552 146.414 182.2 147.211 178.261C148.689 177.366 150.054 176.296 151.275 175.073C151.576 174.772 151.867 174.482 152.148 174.181C156.543 169.609 159.334 163.731 160.099 157.435C160.142 157.097 160.186 156.76 160.224 156.416C160.395 154.773 160.467 153.122 160.44 151.471L160.435 151.443L160.415 151.331C160.405 150.74 160.383 150.122 160.347 149.498L160.304 148.785C160.273 148.348 160.237 147.909 160.195 147.469C160.118 146.659 160.029 145.851 159.914 145.01C159.799 144.169 159.663 143.237 159.509 142.338C159.431 141.898 159.354 141.459 159.276 141.015C159.164 140.384 159.029 139.757 158.896 139.117C158.591 137.672 158.228 136.125 157.822 134.524L157.635 133.791C157.47 133.157 157.3 132.519 157.124 131.875L156.755 130.527C156.157 128.4 155.517 126.243 154.853 124.061L154.396 122.568C152.531 116.499 144.564 87.3461 142.79 80.8371C139.887 50.3751 137.403 28.7204 136.528 23.7584C134.177 10.4263 123.784 1.8739 112.349 3.89008L112.356 3.92604Z" fill="#636363"/>
<path d="M156.115 141.614C156.008 141.007 155.879 140.395 155.751 139.783C155.439 138.311 155.091 136.822 154.708 135.316C154.645 135.076 154.586 134.839 154.523 134.599C154.359 133.973 154.196 133.347 154.023 132.718C153.904 132.278 153.781 131.838 153.658 131.394C153.068 129.29 152.432 127.153 151.775 124.995C151.623 124.503 151.473 124.006 151.32 123.51C149.553 117.762 142.427 91.7642 139.614 81.4178C136.821 52.0072 134.262 29.3649 133.372 24.3149C131.295 12.537 122.246 5.44063 112.913 7.08626C103.58 8.73189 97.898 16.1066 99.5803 30.2733C101.226 44.1128 104.546 61.3809 108.677 78.9883C107.595 79.0678 106.203 79.1856 105.059 79.2637C102.483 79.4419 99.6472 79.6906 97.8853 80.0013L97.0583 80.1471C95.2964 80.4578 92.5427 81.1946 90.065 81.9075C88.9634 82.2253 87.6109 82.5915 86.5712 82.8861C84.4264 64.9286 81.645 47.5654 78.4536 33.9985C75.1892 20.1107 67.3274 15.1242 57.9946 16.7698C48.6618 18.4155 42.5852 28.1789 44.662 39.9569C45.5524 45.0068 50.892 67.1589 58.3262 95.7469C59.2143 106.437 61.4179 133.302 61.7231 139.308C61.7526 139.826 61.7782 140.345 61.807 140.859C61.9242 143.112 62.0585 145.346 62.223 147.517C62.2586 147.976 62.2976 148.43 62.3325 148.886C62.3893 149.535 62.4454 150.18 62.5095 150.824C62.5325 151.071 62.5547 151.314 62.5817 151.561C62.7336 153.107 62.9162 154.625 63.1294 156.115C63.2379 156.73 63.3104 157.352 63.4095 157.96C63.4842 158.384 63.5595 158.811 63.6335 159.231C63.785 160.09 63.9576 160.929 64.1415 161.761C64.3106 162.533 64.4927 163.294 64.6878 164.042C64.7942 164.435 64.9041 164.848 65.0192 165.244L65.2067 165.886C65.3753 166.446 65.5545 166.995 65.7411 167.539C65.7455 167.575 65.7518 167.611 65.7601 167.647C66.2559 169.089 66.8402 170.499 67.5098 171.87C67.6459 172.15 67.7852 172.427 67.9325 172.701C70.5024 177.768 74.6494 181.863 79.7487 184.369C80.0784 184.533 80.4153 184.692 80.7603 184.849C82.4778 185.657 84.3134 186.184 86.1975 186.412C86.2123 186.496 86.2466 186.457 86.2983 186.423L86.3998 186.438L86.5083 186.633C88.4713 190.756 91.9129 192.473 97.0708 191.563C102.309 190.64 106.203 187.893 105.583 184.378C105.575 184.33 105.566 184.278 105.556 184.226C105.553 184.195 105.548 184.164 105.54 184.134C105.436 183.543 105.218 182.304 105.218 182.304L105.901 182.043L106.357 181.872L107.559 181.426C109.963 180.509 112.443 179.807 114.971 179.328C117.513 178.908 120.087 178.715 122.663 178.75V178.75L123.942 178.759L124.429 178.764L125.138 178.771C125.138 178.771 125.357 180.009 125.461 180.601C125.467 180.633 125.472 180.661 125.477 180.693C125.483 180.725 125.495 180.796 125.504 180.844C126.122 184.348 130.723 185.609 135.961 184.685C141.119 183.776 143.77 180.985 144.2 176.44C144.211 176.364 144.228 176.295 144.235 176.219L144.329 176.17C144.386 176.184 144.439 176.208 144.416 176.125C146.11 175.266 147.655 174.143 148.995 172.797C149.261 172.532 149.524 172.267 149.777 172C153.713 167.902 156.211 162.635 156.895 156.994C156.935 156.687 156.972 156.379 157.007 156.068C157.166 154.551 157.233 153.026 157.207 151.502C157.199 151.466 157.193 151.43 157.188 151.394C157.177 150.819 157.154 150.242 157.121 149.659C157.111 149.438 157.096 149.214 157.078 148.991C157.051 148.584 157.021 148.177 156.978 147.748C156.903 146.979 156.814 146.202 156.711 145.418C156.599 144.573 156.471 143.726 156.323 142.867C156.272 142.46 156.197 142.036 156.115 141.614Z" fill="white"/>
<path d="M71.4877 38.6953C69.7003 31.1053 65.4034 28.3696 60.3055 29.2685C55.2076 30.1674 51.889 35.527 53.0218 41.9513C53.7058 45.8307 60.2204 72.9413 66.409 93.6708C68.8645 90.8691 72.9035 88.1467 78.0472 85.802C76.8843 69.8383 74.4473 51.298 71.4877 38.6953Z" fill="#FFDBE2"/>
<path d="M107.737 32.3037C106.816 24.5608 109.918 20.5205 115.016 19.6216C120.114 18.7227 125.066 22.6241 126.198 29.0484C126.882 32.9277 130.033 60.6315 131.312 82.2268C128.042 80.4346 123.315 79.2577 117.68 78.8137C113.317 63.4143 109.262 45.1593 107.737 32.3037Z" fill="#FFDBE2"/>
<path d="M101.552 129.109C101.13 129.186 100.698 129.199 100.273 129.145C99.6886 129.068 99.1284 128.865 98.631 128.549C98.1335 128.233 97.7108 127.813 97.3922 127.318C97.279 127.096 97.2544 126.84 97.3234 126.601C97.3924 126.362 97.5498 126.159 97.7636 126.032C97.9774 125.905 98.2315 125.864 98.4743 125.918C98.717 125.972 98.9301 126.116 99.0703 126.321C99.2369 126.567 99.4541 126.773 99.7073 126.928C99.9604 127.082 100.244 127.18 100.538 127.216C101.693 127.342 103.16 126.527 104.787 124.864C104.967 124.68 105.214 124.574 105.472 124.571C105.73 124.568 105.979 124.668 106.164 124.848C106.349 125.029 106.454 125.275 106.457 125.533C106.46 125.792 106.36 126.041 106.18 126.225C104.561 127.887 103.006 128.853 101.552 129.109Z" fill="#636363"/>
<path d="M110.401 127.549C108.951 127.805 107.162 127.428 105.067 126.43L104.617 126.213L103.785 121.498C103.74 121.244 103.798 120.982 103.947 120.771C104.095 120.559 104.321 120.415 104.575 120.37C104.829 120.326 105.091 120.384 105.303 120.532C105.514 120.68 105.658 120.906 105.703 121.16L106.359 124.88C108.249 125.716 109.748 125.901 110.707 125.431C110.972 125.296 111.205 125.106 111.391 124.874C111.577 124.641 111.711 124.372 111.784 124.084C111.838 123.833 111.987 123.613 112.201 123.471C112.414 123.329 112.674 123.276 112.927 123.322C113.178 123.37 113.401 123.516 113.545 123.727C113.69 123.939 113.745 124.199 113.698 124.451C113.568 125.025 113.315 125.565 112.955 126.032C112.596 126.498 112.139 126.881 111.617 127.153C111.234 127.346 110.824 127.48 110.401 127.549V127.549Z" fill="#636363"/>
<path d="M104.912 122.28C103.42 122.481 101.907 122.128 100.658 121.288C100.448 121.138 100.306 120.911 100.263 120.656C100.22 120.401 100.28 120.14 100.429 119.929C100.579 119.719 100.806 119.576 101.061 119.534C101.316 119.491 101.577 119.55 101.787 119.7C102.182 119.99 102.632 120.197 103.108 120.31C103.585 120.423 104.079 120.438 104.562 120.356C105.045 120.273 105.506 120.094 105.919 119.83C106.331 119.566 106.686 119.221 106.962 118.817C107.035 118.711 107.128 118.622 107.236 118.553C107.343 118.483 107.463 118.436 107.589 118.413C107.715 118.391 107.844 118.393 107.969 118.42C108.094 118.447 108.212 118.499 108.318 118.571C108.423 118.644 108.512 118.737 108.582 118.845C108.651 118.952 108.698 119.072 108.721 119.198C108.744 119.324 108.741 119.453 108.714 119.578C108.687 119.703 108.636 119.822 108.563 119.927C107.673 121.13 106.375 121.967 104.912 122.28Z" fill="#636363"/>
<path d="M82.1286 129.951C86.2063 129.232 89.0242 125.884 88.4227 122.473C87.8212 119.062 84.028 116.879 79.9504 117.598C75.8728 118.317 73.0549 121.665 73.6564 125.077C74.2579 128.488 78.051 130.67 82.1286 129.951Z" fill="#FFDBE2"/>
<path d="M128.945 121.696C133.022 120.977 135.84 117.629 135.239 114.218C134.637 110.807 130.844 108.624 126.766 109.343C122.689 110.062 119.871 113.41 120.472 116.822C121.074 120.233 124.867 122.415 128.945 121.696Z" fill="#FFDBE2"/>
<path d="M88.1072 110.965C91.1769 110.992 93.7027 113.122 93.4775 116.774C93.3818 117.823 93.0208 118.83 92.4284 119.7C91.8359 120.571 91.0317 121.276 90.0913 121.75C86.459 123.672 83.9596 122.37 82.776 119.769C80.9719 115.799 83.7469 110.931 88.1072 110.965Z" fill="#636363"/>
<path d="M86.3491 116.997C86.9912 116.884 87.4199 116.272 87.3067 115.63C87.1935 114.987 86.5812 114.559 85.9391 114.672C85.297 114.785 84.8683 115.397 84.9815 116.04C85.0947 116.682 85.707 117.11 86.3491 116.997Z" fill="white"/>
<path d="M86.4892 117.792C85.9848 117.88 85.4658 117.771 85.0403 117.486C84.6147 117.201 84.3156 116.763 84.2051 116.263C84.12 115.879 84.1506 115.479 84.2932 115.113C84.4358 114.747 84.684 114.431 85.0062 114.206C85.3283 113.981 85.7101 113.857 86.1029 113.849C86.4958 113.842 86.8821 113.951 87.2128 114.163C87.4342 114.302 87.6254 114.484 87.775 114.698C87.9246 114.912 88.0295 115.154 88.0836 115.41C88.1966 115.924 88.101 116.462 87.8178 116.906C87.5347 117.35 87.087 117.663 86.5731 117.777L86.4892 117.792ZM86.0799 115.471C86.0092 115.49 85.9457 115.529 85.8972 115.584C85.8487 115.639 85.8174 115.707 85.8073 115.779C85.7971 115.852 85.8085 115.926 85.84 115.992C85.8715 116.058 85.9218 116.113 85.9845 116.151C86.0473 116.189 86.1197 116.207 86.1929 116.204C86.266 116.201 86.3366 116.176 86.3959 116.134C86.4552 116.091 86.5005 116.031 86.5263 115.963C86.552 115.894 86.557 115.819 86.5407 115.748C86.5108 115.653 86.4468 115.572 86.3611 115.521C86.2753 115.47 86.1738 115.452 86.0759 115.472L86.0799 115.471Z" fill="white"/>
<path d="M116.821 105.902C113.946 106.978 112.304 109.842 113.761 113.198C114.211 114.151 114.895 114.973 115.75 115.589C116.605 116.204 117.603 116.591 118.649 116.715C122.716 117.279 124.623 115.2 124.842 112.352C125.191 108.002 120.918 104.376 116.821 105.902Z" fill="#636363"/>
<path d="M117.364 111.528C118.006 111.415 118.435 110.803 118.321 110.161C118.208 109.519 117.596 109.09 116.954 109.203C116.312 109.316 115.883 109.929 115.996 110.571C116.109 111.213 116.722 111.642 117.364 111.528Z" fill="white"/>
<path d="M117.508 112.323L117.424 112.338C116.968 112.399 116.505 112.3 116.114 112.058C115.723 111.816 115.428 111.446 115.279 111.011C115.13 110.575 115.137 110.102 115.298 109.671C115.459 109.24 115.764 108.879 116.162 108.648C116.56 108.417 117.026 108.331 117.48 108.405C117.934 108.479 118.348 108.708 118.652 109.053C118.956 109.399 119.131 109.838 119.147 110.298C119.163 110.758 119.019 111.209 118.74 111.574C118.438 111.97 117.998 112.237 117.508 112.323V112.323ZM117.206 110.728C117.305 110.712 117.393 110.659 117.456 110.582C117.518 110.504 117.549 110.406 117.544 110.306C117.53 110.209 117.478 110.121 117.4 110.061C117.322 110.002 117.223 109.976 117.125 109.989C117.077 109.993 117.029 110.008 116.986 110.032C116.943 110.055 116.906 110.088 116.876 110.127C116.846 110.165 116.825 110.21 116.813 110.258C116.801 110.305 116.799 110.355 116.807 110.403C116.811 110.453 116.826 110.502 116.849 110.546C116.873 110.59 116.905 110.63 116.944 110.661C116.983 110.693 117.028 110.716 117.076 110.73C117.125 110.744 117.175 110.748 117.225 110.741L117.206 110.728Z" fill="white"/>
<path d="M104.017 191.356C103.83 191.389 103.638 191.363 103.467 191.282C103.296 191.2 103.155 191.068 103.063 190.902L100.163 185.737C100.104 185.632 100.067 185.517 100.052 185.398C100.038 185.279 100.047 185.158 100.08 185.043C100.112 184.927 100.167 184.819 100.241 184.725C100.315 184.631 100.407 184.552 100.512 184.493C100.617 184.434 100.732 184.397 100.851 184.383C100.97 184.368 101.091 184.378 101.206 184.41C101.322 184.443 101.43 184.497 101.524 184.572C101.618 184.646 101.697 184.738 101.756 184.842L104.656 190.008C104.774 190.219 104.803 190.468 104.738 190.701C104.673 190.934 104.518 191.132 104.307 191.251C104.217 191.303 104.119 191.338 104.017 191.356V191.356Z" fill="#636363"/>
<path d="M129.37 186.886C129.27 186.904 129.166 186.904 129.066 186.886C128.947 186.867 128.833 186.825 128.731 186.762C128.628 186.699 128.539 186.616 128.469 186.519C128.399 186.421 128.348 186.311 128.32 186.194C128.293 186.077 128.289 185.956 128.308 185.837L129.267 179.991C129.28 179.867 129.319 179.748 129.38 179.639C129.441 179.53 129.524 179.435 129.623 179.36C129.722 179.284 129.836 179.23 129.957 179.199C130.077 179.169 130.203 179.164 130.326 179.184C130.449 179.204 130.567 179.249 130.672 179.316C130.777 179.383 130.868 179.471 130.937 179.574C131.007 179.678 131.056 179.794 131.079 179.916C131.103 180.039 131.101 180.165 131.074 180.287L130.115 186.132C130.084 186.319 129.996 186.492 129.862 186.627C129.729 186.762 129.557 186.853 129.37 186.886V186.886Z" fill="#636363"/>
</svg>
